<svg xmlns="http://www.w3.org/2000/svg" width="165" height="137.894" viewBox="0 0 165 137.894"><g transform="translate(-3832.931 194.496)"><g transform="translate(3832.931 -194.496)"><g transform="translate(0)"><path d="M62.741,77.329l-9.316,23.316H50.678L22.2,22.7Q18.464,12.051,13.817,7.329A15.338,15.338,0,0,0,2.465,2.609H0V0H51.243l.14,2.609q-6.275.068-9.2,1.689a5.407,5.407,0,0,0-2.925,5.077,22.173,22.173,0,0,0,1.269,7.117l20.8,57.584ZM81.406,24.106a71.378,71.378,0,0,0-4.332-10.572A25.4,25.4,0,0,0,72.315,7.4a14.8,14.8,0,0,0-5.25-3.736,18.238,18.238,0,0,0-6.591-1.054V0H113.9V2.609h-2.605q-6.346,0-9.869,2.149A6.885,6.885,0,0,0,97.9,10.995a13.939,13.939,0,0,0,.988,5.215L120.1,74.076l20.791-53a23.118,23.118,0,0,0,1.551-7.752,8.7,8.7,0,0,0-4.119-7.894Q134.2,2.819,125.6,2.609L125.457,0H165V2.609a22.25,22.25,0,0,0-6.38,1.232A22.971,22.971,0,0,0,153.3,6.979q-5.929,4.651-10.081,15.011l-30.942,78.656h-2.609L82.746,27.277Z"/><path d="M10.982,59.489v.287h-1.5l3.7,10.824h.039l2.16-6.118-1.6-4.705h-1.11v-.287h6.141v.287H16.9L20.614,70.62h.043l3.8-10.844H22.689v-.287h3.777v.287H24.805L19.527,74.667h-.6L15.56,64.954h-.039l-3.451,9.714h-.6L6.38,59.776H4.7v-.287Z" transform="translate(4.992 63.227)"/><path d="M22.262,62.549a5.236,5.236,0,0,1,1.595,1.015,4.58,4.58,0,0,1,1.056,1.489,4.355,4.355,0,0,1,.38,1.8,4.409,4.409,0,0,1-.38,1.817,4.6,4.6,0,0,1-1.056,1.489,5.139,5.139,0,0,1-1.595,1.007,5.5,5.5,0,0,1-3.963,0,5.1,5.1,0,0,1-1.59-1.007,4.583,4.583,0,0,1-1.06-1.489,4.442,4.442,0,0,1-.38-1.817,4.388,4.388,0,0,1,.38-1.8,4.561,4.561,0,0,1,1.06-1.489,5.191,5.191,0,0,1,1.59-1.015,5.334,5.334,0,0,1,3.963,0m-.728,8.336a2.185,2.185,0,0,0,.666-.994,5.243,5.243,0,0,0,.27-1.417q.05-.8.05-1.623c0-.549-.017-1.087-.05-1.611a5.227,5.227,0,0,0-.27-1.409,2.185,2.185,0,0,0-.666-.994,1.882,1.882,0,0,0-1.25-.38,1.882,1.882,0,0,0-1.254.38,2.2,2.2,0,0,0-.668.994,5.229,5.229,0,0,0-.268,1.409c-.033.524-.05,1.062-.05,1.611s.017,1.089.05,1.623a5.245,5.245,0,0,0,.268,1.417,2.2,2.2,0,0,0,.668.994,1.882,1.882,0,0,0,1.254.38,1.881,1.881,0,0,0,1.25-.38" transform="translate(16.228 66.073)"/><path d="M28.794,62.549a5.236,5.236,0,0,1,1.595,1.015,4.58,4.58,0,0,1,1.056,1.489,4.355,4.355,0,0,1,.38,1.8,4.409,4.409,0,0,1-.38,1.817,4.6,4.6,0,0,1-1.056,1.489,5.139,5.139,0,0,1-1.595,1.007,5.5,5.5,0,0,1-3.963,0,5.1,5.1,0,0,1-1.59-1.007,4.583,4.583,0,0,1-1.06-1.489,4.442,4.442,0,0,1-.38-1.817,4.388,4.388,0,0,1,.38-1.8,4.561,4.561,0,0,1,1.06-1.489,5.191,5.191,0,0,1,1.59-1.015,5.334,5.334,0,0,1,3.963,0m-.728,8.336a2.185,2.185,0,0,0,.666-.994A5.243,5.243,0,0,0,29,68.473q.05-.8.05-1.623c0-.549-.017-1.087-.05-1.611a5.227,5.227,0,0,0-.27-1.409,2.185,2.185,0,0,0-.666-.994,2.255,2.255,0,0,0-2.5,0,2.205,2.205,0,0,0-.668.994,5.23,5.23,0,0,0-.268,1.409c-.035.524-.05,1.062-.05,1.611s.014,1.089.05,1.623a5.245,5.245,0,0,0,.268,1.417,2.2,2.2,0,0,0,.668.994,2.255,2.255,0,0,0,2.5,0" transform="translate(23.171 66.073)"/><path d="M39.124,73.919v.287H35.3V72.688h-.041a3.012,3.012,0,0,1-.914,1.324,2.355,2.355,0,0,1-1.51.464,4.185,4.185,0,0,1-1.828-.392A4.481,4.481,0,0,1,29.6,73.049a4.871,4.871,0,0,1-.914-1.491,4.806,4.806,0,0,1-.328-1.764,5.1,5.1,0,0,1,.258-1.541,4.781,4.781,0,0,1,.8-1.52,4.46,4.46,0,0,1,1.388-1.161,4.149,4.149,0,0,1,2.032-.46,2.446,2.446,0,0,1,1.5.429,2.714,2.714,0,0,1,.883,1.293h.039V59.688H33.868V59.4h3.9v14.52Zm-3.932-5.566a6.231,6.231,0,0,0-.3-1.436,2.718,2.718,0,0,0-.677-1.091A1.694,1.694,0,0,0,33,65.4a1.448,1.448,0,0,0-1.456.963,4.806,4.806,0,0,0-.32,1.366,19.749,19.749,0,0,0-.093,2.086q0,1.009.054,1.819a6.04,6.04,0,0,0,.225,1.386,1.918,1.918,0,0,0,.514.883,1.316,1.316,0,0,0,.914.305,1.911,1.911,0,0,0,1.347-.441,2.758,2.758,0,0,0,.728-1.108,5.193,5.193,0,0,0,.3-1.436c.033-.514.052-.984.052-1.409,0-.452-.025-.937-.07-1.458" transform="translate(30.144 63.131)"/><path d="M42.273,59.489l3.552,10.228h.043l3.614-10.228h5.132v.287H52.73V73.824h1.885v.287H47.88v-.287h1.869V59.776h-.041L44.656,74.11h-.328L39.255,59.776h-.043V73.824H41.1v.287H36.994v-.287h1.89V59.776h-1.89v-.287Z" transform="translate(39.319 63.227)"/><path d="M56.01,71.45a6.735,6.735,0,0,1-1.017.083,2.637,2.637,0,0,1-1.551-.369,1.6,1.6,0,0,1-.627-1.025h-.039a1.989,1.989,0,0,1-.906,1.108,3.817,3.817,0,0,1-1.661.287,4.844,4.844,0,0,1-1.009-.105,3.479,3.479,0,0,1-.945-.326,1.858,1.858,0,0,1-.7-.627,1.7,1.7,0,0,1-.27-.976,1.921,1.921,0,0,1,.239-1,2.22,2.22,0,0,1,.615-.679,3.571,3.571,0,0,1,.864-.452c.322-.113.652-.227.994-.338.563-.165,1.017-.3,1.366-.421a3.147,3.147,0,0,0,.813-.371,1.087,1.087,0,0,0,.4-.441,1.539,1.539,0,0,0,.111-.635V63.912a1.967,1.967,0,0,0-.264-1.007,1.07,1.07,0,0,0-1.009-.45,1.545,1.545,0,0,0-.821.212.85.85,0,0,0-.349.79,2.046,2.046,0,0,0,.019.217c.014.105.027.217.043.34s.027.241.039.349.023.186.023.225a.733.733,0,0,1-.144.483.881.881,0,0,1-.34.26,1.248,1.248,0,0,1-.411.089c-.142.01-.264.012-.359.012A3.289,3.289,0,0,1,48.7,65.4a.864.864,0,0,1-.38-.144.852.852,0,0,1-.278-.32,1.15,1.15,0,0,1-.113-.553,1.622,1.622,0,0,1,.3-.957,2.4,2.4,0,0,1,.792-.7,4.269,4.269,0,0,1,1.118-.421,5.859,5.859,0,0,1,1.3-.142,8.5,8.5,0,0,1,1.469.122,3.208,3.208,0,0,1,1.192.454,2.35,2.35,0,0,1,.8.893,3.042,3.042,0,0,1,.3,1.425v5.093a1.907,1.907,0,0,0,.113.689c.074.2.262.3.565.3a.868.868,0,0,0,.441-.1,1.427,1.427,0,0,0,.338-.289l.184.186a1.158,1.158,0,0,1-.829.514m-3.358-5.279a.626.626,0,0,1-.155.237,1.617,1.617,0,0,1-.4.256c-.258.124-.518.245-.778.359a2.927,2.927,0,0,0-.7.441,2.1,2.1,0,0,0-.5.658,2.2,2.2,0,0,0-.2,1.007c0,.165.012.357.031.576a2.011,2.011,0,0,0,.167.635,1.323,1.323,0,0,0,.4.526,1.159,1.159,0,0,0,.741.212,1.212,1.212,0,0,0,.522-.12,1.367,1.367,0,0,0,.464-.384,1.916,1.916,0,0,0,.328-.677,3.626,3.626,0,0,0,.122-1.015V66.171Z" transform="translate(50.259 66.073)"/><path d="M57.265,65.334v8.522h1.378v.289h-5.26v-.289h1.378V65.623H53.383v-.289Zm-2.279-5.442a1.43,1.43,0,1,1-.433,1.025,1.391,1.391,0,0,1,.433-1.025" transform="translate(56.737 63.195)"/><path d="M57.882,68.286q.244.576.5,1.11a4.308,4.308,0,0,0,.606.945,2.71,2.71,0,0,0,.84.666,2.579,2.579,0,0,0,1.213.256c.124,0,.289,0,.491-.017a1.6,1.6,0,0,0,.606-.177,1.382,1.382,0,0,0,.516-.472,1.636,1.636,0,0,0,.212-.914,1.443,1.443,0,0,0-.05-.38,1.082,1.082,0,0,0-.217-.4,1.8,1.8,0,0,0-.481-.4,5.36,5.36,0,0,0-.875-.4l-1.661-.615a4.283,4.283,0,0,1-.619-.278,2.406,2.406,0,0,1-.6-.462,2.483,2.483,0,0,1-.464-.687,2.264,2.264,0,0,1-.186-.957,2.677,2.677,0,0,1,.248-1.126,2.873,2.873,0,0,1,.689-.937A3.3,3.3,0,0,1,59.72,62.4a3.8,3.8,0,0,1,1.366-.235,3.03,3.03,0,0,1,.728.08c.225.056.433.113.619.175s.349.12.491.173a1.007,1.007,0,0,0,.338.083c.153,0,.248-.027.289-.083a.8.8,0,0,0,.1-.186h.287V64.92h-.264c-.14-.33-.278-.646-.421-.945a3.452,3.452,0,0,0-.516-.792,2.12,2.12,0,0,0-.73-.534,2.618,2.618,0,0,0-1.069-.194,2.247,2.247,0,0,0-1.24.359,1.174,1.174,0,0,0-.565,1.056,1.6,1.6,0,0,0,.041.33.959.959,0,0,0,.184.38,1.639,1.639,0,0,0,.454.39,4.255,4.255,0,0,0,.821.38l1.745.6a3.983,3.983,0,0,1,1.683,1.029,2.32,2.32,0,0,1,.576,1.621,2.5,2.5,0,0,1-.3,1.219,2.95,2.95,0,0,1-.782.926,3.5,3.5,0,0,1-1.118.584,4.285,4.285,0,0,1-1.316.208,4.231,4.231,0,0,1-.8-.085c-.287-.056-.565-.12-.829-.194s-.514-.138-.73-.194a2.257,2.257,0,0,0-.516-.085.373.373,0,0,0-.235.062.532.532,0,0,0-.132.225h-.287V68.286Z" transform="translate(61.214 66.074)"/><path d="M69.725,62.549a5.236,5.236,0,0,1,1.595,1.015,4.58,4.58,0,0,1,1.056,1.489,4.355,4.355,0,0,1,.38,1.8,4.408,4.408,0,0,1-.38,1.817,4.6,4.6,0,0,1-1.056,1.489,5.138,5.138,0,0,1-1.595,1.007,5.5,5.5,0,0,1-3.963,0,5.1,5.1,0,0,1-1.59-1.007,4.583,4.583,0,0,1-1.06-1.489,4.442,4.442,0,0,1-.38-1.817,4.388,4.388,0,0,1,.38-1.8,4.561,4.561,0,0,1,1.06-1.489,5.191,5.191,0,0,1,1.59-1.015,5.334,5.334,0,0,1,3.963,0M69,70.885a2.185,2.185,0,0,0,.666-.994,5.243,5.243,0,0,0,.27-1.417q.049-.8.05-1.623c0-.549-.017-1.087-.05-1.611a5.227,5.227,0,0,0-.27-1.409A2.185,2.185,0,0,0,69,62.835a2.255,2.255,0,0,0-2.5,0,2.2,2.2,0,0,0-.668.994,5.229,5.229,0,0,0-.268,1.409c-.035.524-.049,1.062-.049,1.611s.014,1.089.049,1.623a5.245,5.245,0,0,0,.268,1.417,2.2,2.2,0,0,0,.668.994,2.255,2.255,0,0,0,2.5,0" transform="translate(66.674 66.073)"/><path d="M70.7,70.924V62.689H69.343V62.4h3.82v2.055H73.2c.056-.124.153-.314.289-.565a3.06,3.06,0,0,1,.6-.751,3.469,3.469,0,0,1,1.007-.646,3.743,3.743,0,0,1,1.541-.278,2.787,2.787,0,0,1,2.1.778,2.963,2.963,0,0,1,.749,2.137v5.792h1.378v.287H75.711v-.287h1.273v-6.49a1.9,1.9,0,0,0-.349-1.262,1.2,1.2,0,0,0-.945-.4,2.024,2.024,0,0,0-.945.237,2.289,2.289,0,0,0-.792.708,3.9,3.9,0,0,0-.543,1.172,5.873,5.873,0,0,0-.208,1.642v4.4h1.3v.287H69.343v-.287Z" transform="translate(73.7 66.126)"/></g></g></g></svg>