<svg xmlns="http://www.w3.org/2000/svg" viewBox="0 0 35 35"><defs><style>.cls-1{fill:none;}.cls-2{fill:#333;}</style></defs><g id="レイヤー_2" data-name="レイヤー 2"><g id="レイヤー_1-2" data-name="レイヤー 1"><rect class="cls-1" width="35" height="35"/><g id="マスクグループ_8" data-name="マスクグループ 8"><path id="youtube-play" class="cls-2" d="M13.91,22l9.39-4.85-9.39-4.9ZM17.5,5.29c2.17,0,4.27,0,6.29.08s3.51.12,4.45.19l1.42.07.33,0,.44.06.46.09a2.64,2.64,0,0,1,.55.15c.16.07.34.15.54.26a3,3,0,0,1,.6.37,4.69,4.69,0,0,1,.57.52,2.6,2.6,0,0,1,.3.36A6.26,6.26,0,0,1,34,8.6a7.37,7.37,0,0,1,.52,2c.1.83.18,1.71.24,2.65s.09,1.67.1,2.2v3.41a39.09,39.09,0,0,1-.35,5.62A7.58,7.58,0,0,1,34,26.37a4.81,4.81,0,0,1-.62,1.19l-.27.33a4.69,4.69,0,0,1-.57.52,3,3,0,0,1-.6.36l-.54.25a2.64,2.64,0,0,1-.55.15l-.47.09-.44.06-.32,0q-4.87.36-12.16.36c-2.67,0-5-.06-7-.12s-3.27-.11-3.89-.15l-.95-.07L5,29.29a9.23,9.23,0,0,1-1.05-.19,6.65,6.65,0,0,1-1-.41,3.79,3.79,0,0,1-1.1-.8,2.6,2.6,0,0,1-.3-.36A7,7,0,0,1,1,26.4a7.45,7.45,0,0,1-.51-2Q.32,23.2.23,21.8c-.05-.94-.09-1.67-.1-2.2V16.18a39.09,39.09,0,0,1,.35-5.62A7.58,7.58,0,0,1,1,8.63a5,5,0,0,1,.62-1.19l.27-.33a3.92,3.92,0,0,1,.57-.51A2.65,2.65,0,0,1,3,6.22,4.12,4.12,0,0,1,3.56,6a2.16,2.16,0,0,1,.55-.16l.46-.09L5,5.66a1.62,1.62,0,0,1,.33,0q4.88-.36,12.16-.35Z"/></g></g></g></svg>