<svg xmlns="http://www.w3.org/2000/svg" xmlns:xlink="http://www.w3.org/1999/xlink" viewBox="0 0 35 35"><defs><style>.cls-1{fill:none;}.cls-2{clip-path:url(#clip-path);}.cls-3{fill:#333;}</style><clipPath id="clip-path"><rect class="cls-1" x="0.59" y="0.69" width="33.83" height="33.62"/></clipPath></defs><g id="レイヤー_2" data-name="レイヤー 2"><g id="レイヤー_1-2" data-name="レイヤー 1"><rect class="cls-1" width="35" height="35"/><g id="アートワーク_9" data-name="アートワーク 9"><g class="cls-2"><g id="アートワーク_9-2" data-name="アートワーク 9-2"><path id="パス_106" data-name="パス 106" class="cls-3" d="M34.41,17.6A16.92,16.92,0,1,0,14.86,34.31V22.49h-4.3V17.6h4.3V13.88c0-4.24,2.52-6.59,6.39-6.59A26.67,26.67,0,0,1,25,7.62v4.17H22.9a2.45,2.45,0,0,0-2.75,2.1,3.25,3.25,0,0,0,0,.54V17.6h4.69l-.74,4.89H20.14V34.31A16.93,16.93,0,0,0,34.42,17.6"/></g></g></g></g></g></svg>