<svg xmlns="http://www.w3.org/2000/svg" xmlns:xlink="http://www.w3.org/1999/xlink" viewBox="0 0 35 35"><defs><style>.cls-1{fill:none;}.cls-2{clip-path:url(#clip-path);}.cls-3{fill:#333;}</style><clipPath id="clip-path"><rect class="cls-1" x="3.48" y="6.1" width="28.05" height="22.79"/></clipPath></defs><g id="レイヤー_2" data-name="レイヤー 2"><g id="レイヤー_1-2" data-name="レイヤー 1"><rect class="cls-1" width="35" height="35"/><g id="アートワーク_8" data-name="アートワーク 8"><g class="cls-2"><g id="アートワーク_8-2" data-name="アートワーク 8-2"><path id="パス_99" data-name="パス 99" class="cls-3" d="M12.29,28.9c10.58,0,16.37-8.77,16.37-16.37,0-.25,0-.49,0-.74a11.46,11.46,0,0,0,2.87-3,11.79,11.79,0,0,1-3.31.91,5.78,5.78,0,0,0,2.54-3.19,11.45,11.45,0,0,1-3.66,1.39,5.76,5.76,0,0,0-9.8,5.25,16.34,16.34,0,0,1-11.86-6,5.75,5.75,0,0,0,1.78,7.68,5.59,5.59,0,0,1-2.61-.72v.08a5.77,5.77,0,0,0,4.61,5.65,5.86,5.86,0,0,1-2.6.1,5.76,5.76,0,0,0,5.37,4,11.59,11.59,0,0,1-7.15,2.47,12.26,12.26,0,0,1-1.35-.1,16.29,16.29,0,0,0,8.81,2.58"/></g></g></g></g></g></svg>