<svg xmlns="http://www.w3.org/2000/svg" viewBox="0 0 34 34"><defs><style>.cls-1{fill:#333;}.cls-2{fill:none;}</style></defs><g id="レイヤー_2" data-name="レイヤー 2"><g id="レイヤー_1-2" data-name="レイヤー 1"><g id="マスクグループ_8" data-name="マスクグループ 8"><path id="youtube-play" class="cls-1" d="M13.49,21.4l9.18-4.74-9.18-4.8ZM17,5.05c2.12,0,4.18,0,6.16.08s3.43.12,4.35.18l1.38.08.33,0a3.18,3.18,0,0,1,.43.06l.45.08a2.39,2.39,0,0,1,.54.15l.53.25a3.25,3.25,0,0,1,.59.37,4.35,4.35,0,0,1,.55.5,3.17,3.17,0,0,1,.29.35,5.74,5.74,0,0,1,.55,1.11,7.08,7.08,0,0,1,.51,1.92c.1.81.18,1.67.24,2.59S34,14.43,34,15v3.34a40.41,40.41,0,0,1-.34,5.5,7.72,7.72,0,0,1-.48,1.89,4.8,4.8,0,0,1-.6,1.17l-.27.32a4.35,4.35,0,0,1-.55.5,3.21,3.21,0,0,1-.59.36l-.53.24a2.39,2.39,0,0,1-.54.15l-.46.09-.43,0-.31,0q-4.77.36-11.9.36c-2.62,0-4.89-.07-6.82-.12s-3.2-.11-3.8-.14l-.93-.08-.69-.08a8.87,8.87,0,0,1-1-.18,6.82,6.82,0,0,1-1-.4,4,4,0,0,1-1.08-.78c-.1-.12-.2-.23-.29-.36A6.37,6.37,0,0,1,.84,25.7a7.37,7.37,0,0,1-.5-1.91C.24,23,.16,22.12.11,21.2S0,19.57,0,19.05V15.71a40.41,40.41,0,0,1,.34-5.5A7.72,7.72,0,0,1,.82,8.32a4.56,4.56,0,0,1,.6-1.16l.27-.33a4.35,4.35,0,0,1,.55-.5A3.92,3.92,0,0,1,2.83,6l.53-.25a2.39,2.39,0,0,1,.54-.15l.45-.08.43-.06.32,0Q9.87,5,17,5.05Z"/></g><rect class="cls-2" width="34" height="34"/></g></g></svg>