<svg xmlns="http://www.w3.org/2000/svg" xmlns:xlink="http://www.w3.org/1999/xlink" viewBox="0 0 73 71.13"><defs><style>.cls-1{fill:none;}.cls-2{clip-path:url(#clip-path);}.cls-3{fill:#333;}</style><clipPath id="clip-path" transform="translate(0 0)"><rect class="cls-1" x="7.5" width="58" height="71"/></clipPath></defs><g id="レイヤー_2" data-name="レイヤー 2"><g id="レイヤー_1-2" data-name="レイヤー 1"><rect class="cls-1" width="73" height="71"/><g id="アートワーク_4" data-name="アートワーク 4"><g class="cls-2"><g id="アートワーク_4-2" data-name="アートワーク 4-2"><path id="パス_81" data-name="パス 81" class="cls-3" d="M12.35,9.7A4.85,4.85,0,0,0,7.5,14.55h0V66.28a4.85,4.85,0,0,0,4.85,4.85H43.06l1-.32,11.32-9.7a1.63,1.63,0,0,0,.65-1.3V14.55A4.85,4.85,0,0,0,51.15,9.7Zm0,3.23h38.8a1.63,1.63,0,0,1,1.62,1.62h0v42H46.3a4.85,4.85,0,0,0-4.85,4.85V67.9H12.35a1.62,1.62,0,0,1-1.62-1.62h0V14.55a1.63,1.63,0,0,1,1.62-1.62h0M46.3,59.81H52L44.68,66V61.43a1.61,1.61,0,0,1,1.62-1.62h0" transform="translate(0 0)"/><path id="パス_82" data-name="パス 82" class="cls-3" d="M22.05,0A4.85,4.85,0,0,0,17.2,4.85h0v1a1.62,1.62,0,0,0,3.23,0v-1a1.63,1.63,0,0,1,1.62-1.62h38.8a1.62,1.62,0,0,1,1.61,1.62V56.58c0,1.45-1,1.62-2.26,1.62a1.62,1.62,0,0,0,0,3.23c3.55,0,5.5-1.94,5.5-4.85V4.85A4.85,4.85,0,0,0,60.85,0H22.05Z" transform="translate(0 0)"/><path id="パス_83" data-name="パス 83" class="cls-3" d="M17.2,21a1.62,1.62,0,1,0-.08,3.23H46.3A1.62,1.62,0,1,0,46.38,21H17.2Z" transform="translate(0 0)"/><path id="パス_84" data-name="パス 84" class="cls-3" d="M17.2,30.71A1.62,1.62,0,0,0,17.12,34H46.3a1.62,1.62,0,0,0,.08-3.24H17.2Z" transform="translate(0 0)"/><path id="パス_85" data-name="パス 85" class="cls-3" d="M17.2,40.41a1.62,1.62,0,1,0-.08,3.24H46.3a1.62,1.62,0,1,0,.08-3.24H17.2Z" transform="translate(0 0)"/><path id="パス_86" data-name="パス 86" class="cls-3" d="M17.2,50.11a1.62,1.62,0,0,0,0,3.24H37.25a1.62,1.62,0,0,0,0-3.24Z" transform="translate(0 0)"/></g></g></g></g></g></svg>