<svg xmlns="http://www.w3.org/2000/svg" viewBox="0 0 34 34"><defs><style>.cls-1{fill:none;}.cls-2{fill:#333;}</style></defs><g id="レイヤー_2" data-name="レイヤー 2"><g id="レイヤー_1-2" data-name="レイヤー 1"><rect class="cls-1" width="34" height="34"/><path id="instagram" class="cls-2" d="M21.77,17A4.77,4.77,0,1,0,17,21.77,4.78,4.78,0,0,0,21.77,17Zm2.57,0a7.32,7.32,0,0,1-7.29,7.35H17a7.32,7.32,0,0,1-7.34-7.3V17A7.31,7.31,0,0,1,17,9.66H17A7.31,7.31,0,0,1,24.34,17Zm2-7.64a1.72,1.72,0,1,1-.5-1.21A1.72,1.72,0,0,1,26.36,9.36ZM17,5.26H13.61l-1.8,0a13.86,13.86,0,0,0-1.93.19,7.63,7.63,0,0,0-1.33.34A4.9,4.9,0,0,0,5.83,8.56a7.41,7.41,0,0,0-.34,1.33,15.22,15.22,0,0,0-.19,1.92c0,.75,0,1.35,0,1.8s0,1.1,0,2,0,1.34,0,1.43,0,.56,0,1.42,0,1.53,0,2,0,1.05,0,1.8a15.22,15.22,0,0,0,.19,1.92,7.41,7.41,0,0,0,.34,1.33,4.84,4.84,0,0,0,2.73,2.72,6.86,6.86,0,0,0,1.33.35,15.41,15.41,0,0,0,1.92.19c.75,0,1.35.05,1.8.05s1.1,0,2,0h2.85c.87,0,1.52,0,2,0s1,0,1.8-.05a15.6,15.6,0,0,0,1.92-.19,6.86,6.86,0,0,0,1.33-.35,4.85,4.85,0,0,0,2.72-2.72,7.66,7.66,0,0,0,.35-1.33,15.58,15.58,0,0,0,.18-1.92q0-1.12.06-1.8v-2c0-.86,0-1.34,0-1.42s0-.56,0-1.43v-2q0-.66-.06-1.8a15.58,15.58,0,0,0-.18-1.92,7.66,7.66,0,0,0-.35-1.33,4.85,4.85,0,0,0-2.73-2.71,6.86,6.86,0,0,0-1.33-.35,15.41,15.41,0,0,0-1.92-.19l-1.8,0H17ZM31.32,17c0,2.85,0,4.82-.1,5.91a8.71,8.71,0,0,1-2.31,6,8.76,8.76,0,0,1-6,2.31q-1.64.09-5.91.09t-5.91-.09a8.77,8.77,0,0,1-6-2.31,8.76,8.76,0,0,1-2.31-6c-.06-1.09-.1-3.06-.1-5.91s0-4.81.1-5.91a8.75,8.75,0,0,1,2.3-6,8.78,8.78,0,0,1,6-2.32c1.1,0,3.07-.08,5.92-.08s4.81,0,5.91.09a8.77,8.77,0,0,1,6,2.31,8.76,8.76,0,0,1,2.31,6C31.28,12.19,31.32,14.16,31.32,17Z"/></g></g></svg>