<svg xmlns="http://www.w3.org/2000/svg" xmlns:xlink="http://www.w3.org/1999/xlink" viewBox="0 0 34 34"><defs><style>.cls-1{fill:none;}.cls-2{clip-path:url(#clip-path);}.cls-3{fill:#333;}</style><clipPath id="clip-path"><rect class="cls-1" x="0.89" y="1.91" width="32.22" height="30.19"/></clipPath></defs><g id="レイヤー_2" data-name="レイヤー 2"><g id="レイヤー_1-2" data-name="レイヤー 1"><rect class="cls-1" width="34" height="34"/><g id="アートワーク_10" data-name="アートワーク 10"><g class="cls-2"><g id="アートワーク_10-2" data-name="アートワーク 10-2"><path id="パス_104" data-name="パス 104" class="cls-3" d="M17,1.91C8.1,1.91.89,7.58.89,14.58.89,21,6.64,26.33,14.51,27.14c0,0,1.57-.22,1.21,1.86s-.62,2.27-.18,3,7.43-3.18,13.1-8.68c2.57-2.49,4.47-5.34,4.47-8.75,0-7-7.21-12.66-16.11-12.66M11,18.57H6.6V11.21H8.39V17H11Zm2.93,0h-1.8v-7.4h1.8Zm7.76,0H19.78l-3.15-4.73v4.73H14.88v-7.4h1.86l3.15,4.72V11.21h1.76Zm6.26,0h-5.2V11.21h5.06v1.53h-3.3V14h3v1.5h-3V17h3.44Z"/></g></g></g></g></g></svg>